<svg xmlns="http://www.w3.org/2000/svg" xmlns:xlink="http://www.w3.org/1999/xlink" version="1.1" viewBox="0 0 100 85.1680120728327">
    <g transform="translate(-1.8493784420655945, -8.558627659059116) scale(1.0274324269877226)" class="css-1us4dwa" fill="#4593f3">
        <title xmlns="http://www.w3.org/2000/svg">CRuMbs</title>
        <g xmlns="http://www.w3.org/2000/svg" data-name="15. circle saturn">
            <path
                    d="M88.47,49.8C88.19,65.87,78.32,80.58,63,86A38.48,38.48,0,0,1,17,30,38.85,38.85,0,0,1,57.82,12.12C75.7,15.82,88.16,31.77,88.47,49.8c0,1.93,3,1.93,3,0A42,42,0,0,0,64.41,10.91a41.48,41.48,0,0,0-50,60.19A41.89,41.89,0,0,0,57.29,90.62c19.79-3.48,33.84-21,34.19-40.83C91.5,47.87,88.5,47.87,88.47,49.8Z"></path>
            <path d="M3.3,51.3H97.63a1.5,1.5,0,0,0,0-3H3.3a1.5,1.5,0,0,0,0,3h0Z"></path>
        </g>
    </g>
</svg>
